<svg width="48" height="48" viewBox="0 0 48 48" fill="none" xmlns="http://www.w3.org/2000/svg">
<path d="M23.2913 13.5104L23.9992 14.2182L24.7063 13.5096L26.3469 11.8653C26.347 11.8652 26.3471 11.8651 26.3472 11.865C30.1625 8.05009 36.3389 8.0502 40.1541 11.8653C43.9606 15.6719 43.9571 21.8267 40.1563 25.65C40.1559 25.6505 40.1554 25.651 40.1549 25.6515L24.3543 41.4429L24.3541 41.4431C24.1588 41.6384 23.8422 41.6384 23.6469 41.4431L7.85621 25.6525C4.04858 21.8448 4.04859 15.6715 7.8562 11.8639L7.8562 11.8639C11.6638 8.05625 17.8372 8.05626 21.6447 11.8639L21.6447 11.8639L23.2913 13.5104Z" fill="white" stroke="white" stroke-width="2"/>
</svg>
