<svg width="current" height="current" viewBox="0 0 200 200" fill="none" xmlns="http://www.w3.org/2000/svg">
<path d="M105.71 156.026L92.5329 147.231L87.5549 135.179L68.5212 113.355L66.4715 108.469L55.6369 92.8339L53.8799 86.9707L53.2943 89.2508C53.0991 90.1194 53.0015 92.0738 53.0015 95.114C53.1967 98.1542 52.7086 100.326 51.5373 101.629C50.9517 102.497 50.2684 104.235 49.4876 106.84C48.7067 109.229 48.2186 110.858 48.0234 111.726L47.1449 123.127C47.3402 123.561 47.5354 123.887 47.7306 124.104C48.121 124.321 48.4139 124.864 48.6091 125.733C48.8043 126.602 48.9019 128.013 48.9019 129.967C48.9019 131.705 48.6091 134.311 48.0234 137.785C46.8521 144.517 46.3641 149.729 46.5593 153.42C46.9497 156.895 47.1449 158.849 47.1449 159.283C47.1449 160.152 47.2426 161.889 47.4378 164.495C47.8282 166.884 47.633 170.25 46.8521 174.593C45.876 182.845 45.6808 189.468 46.2665 194.463L43.0454 196.417C42.2645 196.2 41.0932 196.091 39.5315 196.091C37.9697 196.091 36.2128 196.2 34.2606 196.417C32.5037 196.417 30.6491 196.526 28.6969 196.743C26.7448 196.743 25.0854 196.743 23.7189 196.743H19.9122L7.61347 200L0 195.44C0 191.965 0.390434 188.056 1.1713 183.713C1.75695 179.37 2.245 175.57 2.63543 172.313C3.02587 169.055 3.22108 166.558 3.22108 164.821C3.22108 164.387 3.02587 163.409 2.63543 161.889C2.245 160.152 1.95217 158.958 1.75695 158.306L3.80673 109.121C4.39239 109.121 4.78282 108.36 4.97804 106.84C5.17326 105.32 5.27086 103.692 5.27086 101.954C5.27086 100.217 5.17326 98.5885 4.97804 97.0684C4.78282 95.3312 4.5876 94.2454 4.39239 93.8111C4.19717 93.5939 4.29478 92.7253 4.68521 91.2052C5.27086 89.6851 5.95412 88.0565 6.73499 86.3192L8.78477 81.4332C9.17521 80.5646 9.46803 80.0217 9.66325 79.8046C10.0537 79.3702 10.3465 79.0445 10.5417 78.8274C10.9322 77.5244 11.0298 76.4386 10.8346 75.57C10.6393 74.7014 10.3465 73.7242 9.95608 72.6384C9.76086 71.5527 9.56564 70.0326 9.37042 68.0782C9.17521 66.1238 9.27282 63.3008 9.66325 59.6091C10.4441 52.2258 11.0298 46.1455 11.4202 41.3681C12.0059 36.3735 12.2987 33.2247 12.2987 31.9218V24.43C11.9082 22.4756 11.713 20.6297 11.713 18.8925C11.9082 16.9381 11.1274 15.418 9.37042 14.3322L9.66325 10.0977C10.4441 8.14333 13.47 7.16613 18.7408 7.16613H34.2606C35.4319 7.16613 36.896 6.51466 38.653 5.21172C40.6052 3.90879 42.7526 3.14875 45.0952 2.9316C46.0713 2.49728 47.2426 1.95439 48.6091 1.30293C49.9756 0.434311 50.9517 0 51.5373 0C52.3182 0 53.2943 0.217152 54.4656 0.651457C55.8321 1.08578 57.1986 1.9544 58.5652 3.25733V10.0977L74.3777 44.9511L79.063 72.3127L89.019 90.228L98.3895 113.029L102.782 114.332L112.445 104.56C112.836 103.474 113.226 102.28 113.616 100.977C114.202 99.6743 114.885 98.4799 115.666 97.3941C116.837 95.2226 118.204 92.8339 119.766 90.228C121.523 87.6221 123.572 84.7991 125.915 81.759C135.285 70.4669 139.385 62.7579 138.214 58.6319L150.805 35.8306C154.124 37.3507 156.857 37.025 159.004 34.8534C161.347 32.4647 163.006 27.1444 163.982 18.8925C163.982 18.4582 163.885 17.8067 163.69 16.9381C163.494 15.8523 163.202 14.8751 162.811 14.0065C165.349 12.7036 166.813 11.4007 167.204 10.0977C167.594 8.79478 167.789 6.84039 167.789 4.23453C170.132 3.14876 172.182 2.49729 173.939 2.28012C175.891 1.84582 177.94 1.30293 180.088 0.651457L200 14.0065C199.805 15.9609 199.61 18.0239 199.414 20.1954C199.219 22.367 198.926 24.6471 198.536 27.0358C198.145 30.076 197.755 33.3333 197.365 36.8078C196.974 40.0651 196.584 43.3225 196.193 46.5798C195.998 49.62 195.705 52.443 195.315 55.0489C195.12 57.6547 194.924 59.7177 194.729 61.2378C194.339 63.4093 193.948 67.2096 193.558 72.6384C193.167 77.8502 192.679 85.0163 192.094 94.1368C191.508 112.161 193.558 122.584 198.243 125.407C198.243 126.927 198.145 130.293 197.95 135.505C197.95 140.717 197.853 148.208 197.657 157.98C197.462 162.758 197.365 166.992 197.365 170.684C197.365 174.376 197.365 177.633 197.365 180.456V190.554C192.094 192.074 186.53 193.485 180.674 194.788C175.012 196.091 170.522 196.743 167.204 196.743C165.837 196.743 164.47 196.2 163.104 195.114C161.737 194.028 160.859 192.291 160.469 189.902C161.835 188.599 162.518 187.948 162.518 187.948C162.714 187.948 162.323 187.405 161.347 186.319V147.883L163.397 142.671H161.347V127.687C161.347 125.299 161.249 122.041 161.054 117.915C160.859 113.789 160.566 108.578 160.176 102.28C159.59 95.9826 159.2 91.2052 159.004 87.9479C158.809 84.4734 158.712 82.519 158.712 82.0847C158.712 81.4332 159.2 80.0217 160.176 77.8502C161.347 75.4614 162.421 73.5071 163.397 71.987C163.787 70.9012 163.885 69.8154 163.69 68.7296C163.69 67.4267 163.787 66.3409 163.982 65.4723C163.982 64.6037 164.373 63.8436 165.154 63.1922C166.13 62.3236 166.813 61.6721 167.204 61.2378C166.813 59.9348 166.325 58.5233 165.739 57.0033C165.349 55.4832 165.154 54.506 165.154 54.0717C155.783 49.2942 152.953 52.8773 156.662 64.8208L149.927 81.1075L129.722 114.332L111.567 153.094L105.71 156.026Z" fill="#333333"/>
</svg>
